<?xml version="1.0" standalone="no"?>
<!DOCTYPE svg PUBLIC "-//W3C//DTD SVG 20010904//EN"
 "http://www.w3.org/TR/2001/REC-SVG-20010904/DTD/svg10.dtd">
<svg version="1.0" xmlns="http://www.w3.org/2000/svg"
 width="1890.000000pt" height="1417.000000pt" viewBox="0 0 1890.000000 1417.000000"
 preserveAspectRatio="xMidYMid meet">

<g transform="translate(0.000000,1417.000000) scale(0.100000,-0.100000)"
fill="#000000" stroke="none">
<path d="M7870 5771 l-75 -17 -3 -130 -3 -131 -52 14 c-77 21 -201 12 -270
-20 -74 -34 -141 -97 -174 -166 -25 -49 -28 -67 -28 -151 0 -84 3 -102 28
-152 37 -75 94 -123 175 -148 99 -31 208 -25 305 15 12 5 17 2 17 -9 0 -13 14
-16 90 -16 l90 0 0 465 c0 366 -3 465 -12 464 -7 -1 -47 -9 -88 -18z m-122
-391 l42 -19 -2 -178 -3 -178 -30 -15 c-19 -9 -56 -15 -100 -14 -122 1 -191
58 -202 168 -8 80 12 151 57 196 59 59 159 76 238 40z"/>
<path d="M8678 5753 c-85 -54 -40 -163 67 -163 47 0 95 45 95 89 0 70 -98 115
-162 74z"/>
<path d="M6136 5318 c-113 -244 -206 -446 -206 -450 0 -5 46 -8 103 -8 l102 0
35 88 35 87 179 0 179 0 36 -85 37 -85 106 -3 106 -3 -189 403 c-105 222 -199
424 -211 451 -20 45 -22 47 -63 47 l-43 0 -206 -442z m314 -9 l58 -149 -124 0
-124 0 19 48 c10 26 38 98 61 161 24 63 46 109 48 102 2 -7 30 -79 62 -162z"/>
<path d="M10900 5671 l-85 -27 -3 -67 -3 -67 -44 0 -45 0 0 -60 0 -60 44 0 44
0 4 -197 c3 -189 4 -200 28 -243 19 -34 38 -52 79 -72 49 -25 64 -28 150 -27
53 1 110 4 126 8 29 6 30 8 33 73 l3 66 -43 -15 c-56 -20 -133 -12 -160 15
-30 29 -39 107 -32 260 l7 132 105 0 105 0 -7 31 c-3 17 -6 44 -6 60 l0 29
-105 0 -104 0 -3 94 -3 94 -85 -27z"/>
<path d="M9742 5506 c-23 -8 -54 -21 -67 -30 -33 -21 -39 -20 -55 9 -12 23
-19 25 -77 25 l-63 0 0 -325 0 -325 90 0 90 0 2 243 3 242 54 28 c62 31 112
34 171 11 70 -28 75 -46 78 -301 l3 -223 90 0 89 0 0 228 c-1 163 -5 238 -14
265 -37 104 -127 159 -265 164 -54 2 -102 -2 -129 -11z"/>
<path d="M12017 5510 c-105 -27 -210 -117 -241 -207 -20 -60 -20 -174 0 -243
22 -73 107 -159 184 -186 76 -26 253 -27 327 -1 61 21 145 93 173 146 44 87
46 216 5 318 -22 55 -110 136 -172 158 -56 20 -220 29 -276 15z m172 -120 c77
-22 113 -86 114 -205 1 -68 -3 -88 -23 -125 -35 -64 -94 -93 -174 -87 -107 9
-156 75 -156 207 1 165 98 251 239 210z"/>
<path d="M13355 5507 c-22 -8 -53 -22 -68 -31 l-27 -18 0 26 0 26 -90 0 -90 0
0 -325 0 -325 90 0 90 0 0 206 c0 230 5 254 66 300 43 33 97 40 154 20 24 -8
45 -14 45 -13 1 1 17 30 37 64 32 54 34 62 20 68 -34 14 -187 15 -227 2z"/>
<path d="M14234 5499 c-45 -14 -71 -30 -98 -59 -32 -36 -36 -46 -36 -94 0 -86
58 -150 174 -191 135 -48 189 -93 168 -141 -7 -13 -24 -29 -39 -35 -38 -15
-144 -4 -198 20 l-45 20 -30 -58 -29 -59 57 -23 c50 -21 73 -24 182 -24 110 0
131 3 178 24 110 49 150 157 94 254 -24 40 -78 74 -180 112 -123 46 -144 60
-140 99 6 57 92 73 197 37 l53 -19 25 55 c30 65 30 65 -69 88 -90 20 -189 18
-264 -6z"/>
<path d="M8550 5450 l0 -60 45 0 45 0 0 -265 0 -265 95 0 95 0 0 325 0 325
-140 0 -140 0 0 -60z"/>
<path d="M6035 4416 c-63 -29 -95 -85 -95 -167 0 -56 15 -92 54 -128 34 -32
119 -41 164 -17 36 18 36 19 21 47 -10 19 -12 19 -34 5 -54 -36 -117 -11 -136
53 -15 51 -5 103 28 142 25 30 30 31 79 26 42 -4 54 -2 59 10 3 9 2 20 -3 25
-16 16 -106 19 -137 4z"/>
<path d="M6393 4424 c-10 -4 -13 -48 -13 -170 l0 -164 35 0 35 0 0 70 c0 95
20 95 78 0 40 -65 46 -70 79 -70 34 0 35 1 21 23 -9 12 -29 45 -47 74 l-32 51
26 26 c14 14 25 31 26 38 4 43 -5 76 -26 97 -20 20 -35 24 -97 27 -40 2 -79 1
-85 -2z m128 -54 c12 -7 19 -21 19 -40 0 -32 -23 -50 -64 -50 -24 0 -26 3 -26
50 0 47 2 50 26 50 14 0 34 -5 45 -10z"/>
<path d="M6810 4260 l0 -170 110 0 110 0 0 25 c0 24 -2 25 -75 25 l-75 0 0 55
0 55 50 0 c47 0 50 2 50 25 0 23 -3 25 -50 25 l-50 0 0 40 0 40 75 0 c73 0 75
1 75 25 l0 25 -110 0 -110 0 0 -170z"/>
<path d="M7268 4363 c-14 -38 -44 -114 -66 -170 l-40 -103 33 0 c29 0 35 4 45
35 11 35 12 35 69 35 57 0 58 -1 67 -32 8 -27 15 -34 42 -36 18 -2 32 0 32 5
0 27 -129 328 -141 331 -9 2 -23 -21 -41 -65z m63 -103 l18 -50 -41 0 c-28 0
-38 4 -34 13 2 6 10 31 17 55 6 23 14 40 17 37 3 -3 13 -27 23 -55z"/>
<path d="M7580 4405 c0 -23 3 -25 50 -25 l50 0 0 -145 0 -145 30 0 30 0 0 145
0 145 55 0 c52 0 55 1 55 25 l0 25 -135 0 -135 0 0 -25z"/>
<path d="M8090 4413 c-75 -39 -105 -165 -60 -253 50 -99 201 -93 252 10 38 74
16 189 -43 233 -38 28 -106 32 -149 10z m120 -58 c50 -54 31 -187 -31 -209
-67 -23 -104 20 -104 120 0 52 4 67 24 88 32 34 79 35 111 1z"/>
<path d="M8503 4424 c-10 -4 -13 -48 -13 -170 l0 -164 35 0 35 0 0 70 c0 95
20 95 78 0 40 -65 46 -70 79 -70 34 0 35 1 21 23 -9 12 -29 45 -47 74 l-32 51
26 26 c14 14 25 31 26 38 4 43 -5 76 -26 97 -20 20 -35 24 -97 27 -40 2 -79 1
-85 -2z m128 -54 c12 -7 19 -21 19 -40 0 -32 -23 -50 -64 -50 -24 0 -26 3 -26
50 0 47 2 50 26 50 14 0 34 -5 45 -10z"/>
<path d="M8964 4421 c-48 -21 -70 -94 -41 -133 7 -9 35 -29 61 -45 59 -34 75
-56 60 -80 -15 -24 -48 -28 -85 -9 -29 14 -30 14 -39 -10 -13 -33 -14 -30 20
-44 47 -20 120 -7 147 25 24 28 30 73 13 105 -6 10 -35 34 -65 52 -30 18 -58
41 -61 51 -12 38 41 61 86 37 16 -9 21 -6 26 15 4 14 4 28 2 31 -10 10 -104
14 -124 5z"/>
<path d="M9446 4353 c99 -316 96 -313 146 -161 l34 102 29 -79 c16 -44 32 -90
36 -102 7 -19 39 -34 39 -18 0 2 23 75 50 161 28 86 50 161 50 165 0 5 -13 9
-30 9 -28 0 -30 -4 -51 -72 -40 -136 -37 -135 -74 -28 -38 115 -54 123 -79 44
-10 -31 -25 -74 -35 -96 l-17 -41 -29 97 c-30 95 -30 96 -62 96 l-31 0 24 -77z"/>
<path d="M10010 4260 l0 -170 29 0 c35 0 41 13 41 91 l0 59 65 0 65 0 0 -75 0
-75 30 0 30 0 0 170 0 170 -30 0 -30 0 0 -70 0 -70 -70 0 -70 0 0 70 0 70 -30
0 -30 0 0 -170z"/>
<path d="M10540 4413 c-75 -39 -105 -165 -60 -253 50 -99 201 -93 252 10 38
74 16 189 -43 233 -38 28 -106 32 -149 10z m120 -58 c50 -54 31 -187 -31 -209
-67 -23 -104 20 -104 120 0 52 4 67 24 88 32 34 79 35 111 1z"/>
<path d="M11096 4378 c-3 -29 -6 -106 -6 -170 l0 -118 35 0 35 0 0 118 c0 64
-3 141 -6 170 -6 45 -10 52 -29 52 -19 0 -23 -7 -29 -52z"/>
<path d="M11360 4260 l0 -170 30 0 29 0 3 103 3 102 79 -102 c43 -57 84 -103
92 -103 11 0 14 31 14 170 l0 170 -30 0 -29 0 -3 -95 -3 -95 -75 94 c-108 136
-110 134 -110 -74z"/>
<path d="M11820 4260 l0 -170 29 0 c34 0 41 17 41 103 l0 57 55 0 c52 0 55 1
55 25 0 24 -3 25 -55 25 -46 0 -55 3 -55 18 0 9 -3 27 -6 40 -6 22 -5 22 80
22 85 0 86 0 86 25 l0 25 -115 0 -115 0 0 -170z"/>
<path d="M12240 4260 l0 -170 110 0 110 0 0 25 c0 25 -1 25 -80 25 l-80 0 0
145 0 145 -30 0 -30 0 0 -170z"/>
<path d="M12622 4289 l3 -141 33 -29 c27 -24 41 -29 83 -29 55 0 103 20 119
49 5 11 10 81 10 155 l0 136 -30 0 -30 0 0 -128 c0 -112 -2 -131 -18 -145 -19
-18 -59 -22 -79 -9 -23 15 -33 65 -33 173 l0 109 -31 0 -31 0 4 -141z"/>
<path d="M13080 4260 l0 -170 110 0 110 0 0 25 c0 24 -2 25 -75 25 l-75 0 0
55 0 55 50 0 c47 0 50 2 50 25 0 23 -3 25 -50 25 l-50 0 0 40 0 40 75 0 c73 0
75 1 75 25 l0 25 -110 0 -110 0 0 -170z"/>
<path d="M13490 4260 l0 -170 30 0 29 0 3 103 3 102 79 -102 c43 -57 84 -103
92 -103 11 0 14 31 14 170 l0 170 -30 0 -29 0 -3 -95 -3 -95 -75 94 c-108 136
-110 134 -110 -74z"/>
<path d="M14035 4416 c-63 -29 -95 -85 -95 -167 0 -56 15 -92 54 -128 34 -32
119 -41 164 -17 36 18 36 19 21 47 -10 19 -12 19 -34 5 -54 -36 -117 -11 -136
53 -15 51 -5 103 28 142 25 30 30 31 79 26 42 -4 54 -2 59 10 3 9 2 20 -3 25
-16 16 -106 19 -137 4z"/>
<path d="M14380 4260 l0 -170 110 0 110 0 0 25 c0 24 -2 25 -75 25 l-75 0 0
55 0 55 50 0 c47 0 50 2 50 25 0 23 -3 25 -50 25 l-50 0 0 40 0 40 75 0 c73 0
75 1 75 25 l0 25 -110 0 -110 0 0 -170z"/>
</g>
</svg>
